<mxfile host="app.diagrams.net" modified="2021-02-03T03:47:24.287Z" agent="5.0 (Macintosh; Intel Mac OS X 10_11_6) AppleWebKit/537.36 (KHTML, like Gecko) Chrome/88.0.4324.96 Safari/537.36" etag="YYp2cbA41TsUDQ-K9wew" version="14.2.9" type="github">
  <diagram id="xwpSypxVo-qvQC3v7Vhw" name="Page-1">
    <mxGraphModel dx="1012" dy="1130" grid="1" gridSize="10" guides="1" tooltips="1" connect="1" arrows="1" fold="1" page="1" pageScale="4" pageWidth="827" pageHeight="1169" math="0" shadow="0">
      <root>
        <mxCell id="0" />
        <mxCell id="1" parent="0" />
        <mxCell id="zwwpV-oR1FDmDDmUrEG6-1" value="" style="rounded=0;whiteSpace=wrap;html=1;fillColor=#dae8fc;strokeColor=#6c8ebf;gradientColor=#7ea6e0;" vertex="1" parent="1">
          <mxGeometry x="140" y="440" width="570" height="650" as="geometry" />
        </mxCell>
        <mxCell id="zwwpV-oR1FDmDDmUrEG6-10" value="" style="group" vertex="1" connectable="0" parent="1">
          <mxGeometry x="160" y="480" width="530" height="130" as="geometry" />
        </mxCell>
        <mxCell id="zwwpV-oR1FDmDDmUrEG6-2" value="" style="rounded=0;whiteSpace=wrap;html=1;fillColor=#dae8fc;strokeColor=#6c8ebf;" vertex="1" parent="zwwpV-oR1FDmDDmUrEG6-10">
          <mxGeometry width="530" height="130" as="geometry" />
        </mxCell>
        <mxCell id="zwwpV-oR1FDmDDmUrEG6-3" value="&lt;b&gt;&lt;font style=&quot;font-size: 22px&quot;&gt;智慧企业服务平台&lt;/font&gt;&lt;/b&gt;" style="text;html=1;strokeColor=none;fillColor=none;align=center;verticalAlign=middle;whiteSpace=wrap;rounded=0;" vertex="1" parent="zwwpV-oR1FDmDDmUrEG6-10">
          <mxGeometry x="100" y="17" width="330" height="20" as="geometry" />
        </mxCell>
        <mxCell id="zwwpV-oR1FDmDDmUrEG6-4" value="&lt;font color=&quot;#3399ff&quot; style=&quot;font-size: 14px&quot;&gt;政务PC端&lt;/font&gt;" style="fontColor=#0066CC;verticalAlign=top;verticalLabelPosition=bottom;labelPosition=center;align=center;html=1;outlineConnect=0;fillColor=#CCCCCC;strokeColor=#6881B3;gradientColor=none;gradientDirection=north;strokeWidth=2;shape=mxgraph.networks.pc;" vertex="1" parent="zwwpV-oR1FDmDDmUrEG6-10">
          <mxGeometry x="80" y="55" width="60" height="40" as="geometry" />
        </mxCell>
        <mxCell id="zwwpV-oR1FDmDDmUrEG6-5" value="&lt;font color=&quot;#3399ff&quot; style=&quot;font-size: 14px&quot;&gt;企业PC端&lt;/font&gt;" style="fontColor=#0066CC;verticalAlign=top;verticalLabelPosition=bottom;labelPosition=center;align=center;html=1;outlineConnect=0;fillColor=#CCCCCC;strokeColor=#6881B3;gradientColor=none;gradientDirection=north;strokeWidth=2;shape=mxgraph.networks.pc;" vertex="1" parent="zwwpV-oR1FDmDDmUrEG6-10">
          <mxGeometry x="194" y="56" width="60" height="40" as="geometry" />
        </mxCell>
        <mxCell id="zwwpV-oR1FDmDDmUrEG6-7" value="&lt;font color=&quot;#3399ff&quot; style=&quot;font-size: 14px&quot;&gt;政务移动端&lt;/font&gt;" style="verticalLabelPosition=bottom;html=1;verticalAlign=top;align=center;strokeColor=none;fillColor=#00BEF2;shape=mxgraph.azure.mobile;pointerEvents=1;" vertex="1" parent="zwwpV-oR1FDmDDmUrEG6-10">
          <mxGeometry x="326" y="55" width="30" height="45" as="geometry" />
        </mxCell>
        <mxCell id="zwwpV-oR1FDmDDmUrEG6-8" value="&lt;font color=&quot;#3399ff&quot; style=&quot;font-size: 14px&quot;&gt;企业移动端&lt;/font&gt;" style="verticalLabelPosition=bottom;html=1;verticalAlign=top;align=center;strokeColor=none;fillColor=#00BEF2;shape=mxgraph.azure.mobile;pointerEvents=1;" vertex="1" parent="zwwpV-oR1FDmDDmUrEG6-10">
          <mxGeometry x="420" y="54.5" width="30" height="45" as="geometry" />
        </mxCell>
        <mxCell id="zwwpV-oR1FDmDDmUrEG6-9" value="&lt;font style=&quot;font-size: 16px&quot;&gt;展现层&lt;/font&gt;" style="text;html=1;strokeColor=none;fillColor=none;align=center;verticalAlign=middle;whiteSpace=wrap;rounded=0;" vertex="1" parent="zwwpV-oR1FDmDDmUrEG6-10">
          <mxGeometry x="450" y="10" width="50" height="20" as="geometry" />
        </mxCell>
        <mxCell id="zwwpV-oR1FDmDDmUrEG6-11" value="" style="group;fillColor=#fad9d5;strokeColor=#ae4132;container=0;" vertex="1" connectable="0" parent="1">
          <mxGeometry x="160" y="640" width="530" height="230" as="geometry" />
        </mxCell>
        <mxCell id="zwwpV-oR1FDmDDmUrEG6-18" value="&lt;font style=&quot;font-size: 16px&quot;&gt;应用层&lt;br&gt;&lt;/font&gt;" style="text;html=1;strokeColor=none;fillColor=none;align=center;verticalAlign=middle;whiteSpace=wrap;rounded=0;" vertex="1" parent="1">
          <mxGeometry x="600" y="650" width="60" height="20" as="geometry" />
        </mxCell>
        <mxCell id="zwwpV-oR1FDmDDmUrEG6-19" value="" style="group;fillColor=#d0cee2;strokeColor=#56517e;container=0;" vertex="1" connectable="0" parent="1">
          <mxGeometry x="160" y="900" width="530" height="150" as="geometry" />
        </mxCell>
        <mxCell id="zwwpV-oR1FDmDDmUrEG6-20" value="&lt;font style=&quot;font-size: 16px&quot;&gt;数据层&lt;br&gt;&lt;/font&gt;" style="text;html=1;fillColor=#d0cee2;align=center;verticalAlign=middle;whiteSpace=wrap;rounded=0;dashed=1;" vertex="1" parent="1">
          <mxGeometry x="593" y="910" width="60" height="20" as="geometry" />
        </mxCell>
        <mxCell id="zwwpV-oR1FDmDDmUrEG6-21" value="&lt;font color=&quot;#3399ff&quot; style=&quot;font-size: 15px&quot;&gt;企业信息库&lt;/font&gt;" style="aspect=fixed;perimeter=ellipsePerimeter;html=1;align=center;shadow=0;dashed=0;spacingTop=3;image;image=img/lib/active_directory/database_partition_2.svg;labelBackgroundColor=none;" vertex="1" parent="1">
          <mxGeometry x="190" y="945.4" width="80" height="59.2" as="geometry" />
        </mxCell>
        <mxCell id="zwwpV-oR1FDmDDmUrEG6-30" value="&lt;font color=&quot;#3399ff&quot; style=&quot;font-size: 15px&quot;&gt;招商项目库&lt;/font&gt;" style="aspect=fixed;perimeter=ellipsePerimeter;html=1;align=center;shadow=0;dashed=0;spacingTop=3;image;image=img/lib/active_directory/database_partition_2.svg;labelBackgroundColor=none;" vertex="1" parent="1">
          <mxGeometry x="310" y="945.4" width="80" height="59.2" as="geometry" />
        </mxCell>
        <mxCell id="zwwpV-oR1FDmDDmUrEG6-31" value="&lt;font color=&quot;#3399ff&quot; style=&quot;font-size: 15px&quot;&gt;企业法人库&lt;/font&gt;" style="aspect=fixed;perimeter=ellipsePerimeter;html=1;align=center;shadow=0;dashed=0;spacingTop=3;image;image=img/lib/active_directory/database_partition_2.svg;labelBackgroundColor=none;" vertex="1" parent="1">
          <mxGeometry x="430" y="945.4" width="80" height="59.2" as="geometry" />
        </mxCell>
        <mxCell id="zwwpV-oR1FDmDDmUrEG6-32" value="&lt;font color=&quot;#3399ff&quot;&gt;&lt;span style=&quot;font-size: 15px&quot;&gt;.....&lt;/span&gt;&lt;/font&gt;" style="aspect=fixed;perimeter=ellipsePerimeter;html=1;align=center;shadow=0;dashed=0;spacingTop=3;image;image=img/lib/active_directory/database_partition_2.svg;labelBackgroundColor=none;" vertex="1" parent="1">
          <mxGeometry x="550" y="945.4" width="80" height="59.2" as="geometry" />
        </mxCell>
        <mxCell id="zwwpV-oR1FDmDDmUrEG6-35" value="&lt;font color=&quot;#3399ff&quot; style=&quot;font-size: 14px&quot;&gt;系统首页&lt;/font&gt;" style="outlineConnect=0;dashed=0;verticalLabelPosition=bottom;verticalAlign=top;align=center;html=1;shape=mxgraph.aws3.workspaces;fillColor=#D16A28;gradientColor=#F58435;gradientDirection=north;labelBackgroundColor=none;" vertex="1" parent="1">
          <mxGeometry x="180" y="693.25" width="82.5" height="94.5" as="geometry" />
        </mxCell>
        <mxCell id="zwwpV-oR1FDmDDmUrEG6-37" value="&lt;font color=&quot;#3399ff&quot; style=&quot;font-size: 14px&quot;&gt;招商引资管理&lt;/font&gt;" style="outlineConnect=0;dashed=0;verticalLabelPosition=bottom;verticalAlign=top;align=center;html=1;shape=mxgraph.aws3.elastic_transcoder;fillColor=#D9A741;gradientColor=none;labelBackgroundColor=none;" vertex="1" parent="1">
          <mxGeometry x="390" y="692.5" width="76.5" height="93" as="geometry" />
        </mxCell>
        <mxCell id="zwwpV-oR1FDmDDmUrEG6-38" value="&lt;font color=&quot;#3399ff&quot; style=&quot;font-size: 14px&quot;&gt;系统配置管理&lt;/font&gt;" style="outlineConnect=0;dashed=0;verticalLabelPosition=bottom;verticalAlign=top;align=center;html=1;shape=mxgraph.aws3.application_discovery_service;fillColor=#5294CF;gradientColor=none;labelBackgroundColor=none;" vertex="1" parent="1">
          <mxGeometry x="490" y="692.5" width="76.5" height="93" as="geometry" />
        </mxCell>
        <mxCell id="zwwpV-oR1FDmDDmUrEG6-39" value="&lt;font color=&quot;#3399ff&quot; style=&quot;font-size: 14px&quot;&gt;企业服务管理&lt;/font&gt;" style="outlineConnect=0;dashed=0;verticalLabelPosition=bottom;verticalAlign=top;align=center;html=1;shape=mxgraph.aws3.api_gateway;fillColor=#D9A741;gradientColor=none;labelBackgroundColor=none;" vertex="1" parent="1">
          <mxGeometry x="290" y="692.5" width="76.5" height="93" as="geometry" />
        </mxCell>
        <mxCell id="zwwpV-oR1FDmDDmUrEG6-43" value="&lt;font color=&quot;#3399ff&quot; style=&quot;font-size: 14px&quot;&gt;....&lt;/font&gt;" style="outlineConnect=0;dashed=0;verticalLabelPosition=bottom;verticalAlign=top;align=center;html=1;shape=mxgraph.aws3.step_functions;fillColor=#D9A741;gradientColor=none;labelBackgroundColor=none;" vertex="1" parent="1">
          <mxGeometry x="597" y="693" width="76.5" height="93" as="geometry" />
        </mxCell>
      </root>
    </mxGraphModel>
  </diagram>
</mxfile>
